Patient5_TMGait_0pt45_1_left_12_EMG.mot
version=1
nRows=36
nColumns=33
inDegrees=no
endheader
time	1LAddLong	2LGlutMax	3LGlutMed	4LIliopsoas	5LSemiMemb	6LBicFemLong	7LRecFem	8LTensFascLat	9LVastMed	10LVasLat	11LGasMed	12lGasLat	13LTibAnt	14LPeroneusLong	15LSol	16LTibPost	17RAddLong	18RGlutMax	19RGlutMed	20RIliopsoas	21RSemiMemb	22RBicFemLong	23RRecFem	24RTensFascLat	25RVastMed	26RVasLat	27RGasMed	28RGasLat	29RTibAnt	30RPeroneusLong	31RSol	32RTibPost
19.17	-0.001984	-0.000305	0.089417	-0.032196	-0.15472	-0.001221	-0.022888	0.20386	0.009766	-0.007172	0.011749	-0.047455	-0.011902	0.049591	0.11841	-0.019684	0.019379	0.000916	0.044708	-0.062866	0.044403	-0.005188	-0.038147	-0.22751	0.044403	0.099792	0.00824	-0.005798	0.007477	-0.028229	0.019684	-0.011749
19.171	-0.002899	-0.017242	0.14099	-0.032501	-0.098267	0.016632	-0.015869	0.45517	0.029907	-0.018005	0.15152	-0.024872	-0.006866	0.015259	0.081787	-0.20645	0.016632	0.001526	-0.041504	-0.0177	0.052948	-0.018005	-0.026245	-0.31952	0.056763	0.066376	0.009766	-0.001373	0.008545	-0.03479	0.028839	-0.036469
19.172	0.005035	-0.027161	0.23086	-0.034637	-0.004883	0.015717	-0.017853	0.83344	0.028076	-0.014954	0.11078	-0.025024	0.004578	-0.049744	0.021973	0.020599	0.001526	0.00351	-0.016785	-0.14832	0.045929	-0.00885	-0.015106	-0.31967	0.062408	-0.061188	0.010376	-0.009155	0.002136	-0.048676	0.014038	-0.035553
19.173	0.007629	-0.026398	0.096588	-0.003052	-0.005646	0.00412	-0.010071	0.47852	0.052948	-0.027008	0.12176	-0.026855	-0.003662	-0.065918	-0.016785	-0.13962	-0.019531	0.003052	-0.025177	-0.052948	0.073395	-0.00885	-0.027771	-0.21057	0.061646	-0.14496	0.006256	-0.005798	0.002747	-0.045166	0.008698	-0.027771
19.174	0.012665	-0.042267	0.070496	0.023956	0.033112	0.053711	-0.009613	0.24109	0.060577	-0.005493	0.1004	-0.013123	-0.020142	-0.018921	-0.065308	-0.21759	-0.050964	0.003815	-0.026398	0.09552	0.073242	-0.005798	-0.024414	-0.05249	0.022736	-0.11108	-0.000458	-0.028229	0.007477	-0.039825	0.00412	-0.022583
19.175	0.021515	-0.048523	0.025482	0.028839	-0.010376	0.033875	-0.010834	0.11078	0.036926	-0.013123	0.033264	-0.003357	-0.01236	0.021057	-0.088654	0.017395	-0.06958	-0.000763	-0.045166	-0.036163	0.10849	0.003662	-0.027924	0.041809	0.013428	-0.015717	-0.012665	-0.016327	0.003662	-0.045166	-0.009155	0.001068
19.176	0.023193	-0.031586	-0.002594	0.023346	-0.095673	0.035706	-0.007324	0.087891	-0.002747	-0.047913	-0.049744	0.004272	-0.009613	0.056763	-0.097351	0.18143	-0.070343	0.001221	-0.055847	0.081635	0.095673	-0.000153	-0.02182	0.12375	0.005341	-0.019073	-0.015869	-0.017395	0.000916	-0.041351	-0.013123	-0.075073
19.177	0.027771	-0.016174	-0.049286	0.021057	-0.10849	0.030365	-0.015869	0.062561	-0.032501	-0.056458	0.028687	-0.006256	-0.009308	0.046082	-0.072937	0.056763	-0.059204	0.007935	-0.047913	-0.052338	0.10605	0.002594	-0.030365	0.19119	0.016785	-0.033875	-0.018311	-0.011292	-0.001984	-0.041504	-0.000916	-0.032806
19.178	0.02533	-0.008698	-0.076752	0.001984	-0.076141	0.005341	-0.005646	0.08255	-0.051422	-0.014801	0.005035	0.009613	-0.010986	0.032959	0.025482	-0.016327	-0.048828	-0.00061	-0.03067	0.02594	0.095978	0.001831	-0.023651	0.19241	0.032196	-0.019989	-0.010223	-0.000916	-0.002899	-0.042877	0.00946	-0.028534
19.179	0.022125	-0.021515	0.011139	-0.002136	-0.002136	-0.03952	0.009308	0.23086	-0.021515	0.041199	-0.12176	0.020752	-0.001221	0.010529	0.078125	-0.082703	-0.039825	-0.000763	-0.017548	-0.012665	0.075989	0.025024	-0.02594	0.15533	0.034485	-0.007172	-0.00824	-0.002747	-0.009155	-0.045624	0.002594	-0.018005
19.18	-0.006866	-0.019989	-0.009766	0.011749	-0.037079	-0.063477	0.007172	0.15396	-0.014038	0.13458	0.061035	0.020599	-0.000153	0.003967	0.041809	-0.00351	-0.008087	0.000305	-0.009918	-0.09491	0.068665	0.011902	-0.019684	0.13992	0.027313	-0.024719	-0.008698	-0.011292	-0.008392	-0.045013	0.016632	-0.005798
19.181	0.022736	-0.037994	-0.087128	0.002899	-0.075378	-0.06134	-0.002441	-0.10696	-0.011902	0.081024	0.003357	0.014648	0.005035	-0.027313	0.061493	-0.12573	-0.010071	-0.004425	0.058441	0.026703	0.094604	0.001526	-0.023499	0.091095	0.039825	-0.037231	-0.00351	-0.019073	-0.002136	-0.050049	0.033264	-0.00946
19.182	0.043793	-0.028381	-0.11658	-0.004425	-0.004578	-0.035706	0	-0.32776	0.004272	0.033264	-0.037994	-0.011749	0.028076	-0.052185	0.036316	0.029144	-0.005798	-0.003204	0.073547	-0.067902	0.14069	-0.013885	-0.022583	0.054321	0.051117	-0.009613	0.004883	-0.032654	-0.003662	-0.047607	0.027313	-0.025177
19.183	0.045013	-0.001984	-0.11047	-0.022278	-0.1004	0.013275	-0.010223	-0.46677	0.009613	0.011444	-0.15381	-0.044556	0.001221	-0.001373	0.008392	0.09903	-0.001373	-0.005035	0.011292	0.112	0.13916	-0.009766	-0.020447	0.079651	0.047302	-0.009918	0.003357	-0.017395	-0.007782	-0.05249	0.013123	-0.016785
19.184	0.049133	0.00824	-0.24246	-0.067291	-0.04837	0.020599	-0.00412	-0.56335	0.00946	0.001678	-0.15305	-0.065613	-0.006561	0.079346	-0.029907	-0.031281	-0.013885	-0.006104	-0.032806	0.012512	0.098419	-0.006714	-0.022888	0.06897	0.053253	-0.001068	0.003967	-0.029297	-0.003815	-0.045776	-0.014191	-0.016937
19.185	-0.090942	0.009766	-0.3125	-0.003204	0.12054	-0.000153	-0.010376	-0.64011	0.016479	-0.000305	0.001373	-0.031433	-0.01297	0.11978	-0.027313	-0.06134	-0.015259	-0.000763	0.003815	0.015564	0.065918	0.001678	-0.028076	0.032196	0.072937	0.001678	0.00412	-0.018463	-0.003052	-0.048065	-0.019531	-0.016327
19.186	0.078888	0.002594	-0.31525	0.003204	0.12909	-0.040283	-0.012817	-0.64697	0.023499	0.002289	0.121	0.02121	-0.013733	0.090179	-0.016022	-0.077209	-0.011292	0.002441	-0.055084	0.035706	0.045319	0.002899	-0.035706	0.02243	0.066528	-0.002289	0.001068	-0.02182	-0.008545	-0.053864	-0.025177	-0.001221
19.187	0.12466	-0.004425	-0.26855	0.03418	-0.035553	-0.04837	-0.002594	-0.44968	0.018158	-0.002747	0.22995	0.070801	-0.016327	0.072174	0.033569	-0.038147	-0.020294	0.000916	-0.006409	-0.11963	0.002594	0.003204	-0.026703	0.015411	0.072937	-0.00412	-0.001373	-0.025024	-0.002899	-0.056763	-0.014343	-0.010223
19.188	0.10834	0.004578	-0.24383	0.077362	0.10742	-0.054474	0.006256	-0.32303	0.003967	0.02594	0.099792	0.05188	-0.02533	0.021057	0.073853	0.12985	-0.028076	0.001984	-0.035553	-0.20737	0.021667	0.003052	-0.039978	0.015564	0.11169	-0.011444	0.004272	-0.015564	-0.008392	-0.058746	0.000305	-0.003357
19.189	-0.005646	0.013733	-0.1059	0.004578	0.14938	-0.03952	0.005951	-0.11902	-0.002441	0.059052	0.007172	0.05127	-0.013428	-0.063629	0.039825	0.1535	-0.038757	-0.000153	-0.059967	0.075073	0.011139	-0.006561	-0.037079	0.019226	0.11429	-0.007172	0.00824	-0.016785	-0.000763	-0.058746	-0.003052	0.000916
19.19	0.06073	0.019684	0.040283	-0.011444	0.046234	-0.034485	0.007324	0.18601	-0.018616	0.056152	-0.040894	0.086365	-0.000305	-0.098267	0.053558	-0.003967	-0.013275	0.00412	-0.06012	-0.011749	0.031433	0.003662	-0.031281	0.046844	0.12543	0.007629	-0.000153	-0.015411	-0.001373	-0.048981	0.020294	-0.004272
19.191	0.080261	0.007477	0.2507	-0.028992	0.006866	-0.056458	0.001068	0.37293	-0.057373	0.019684	-0.037079	0.095825	0.00885	-0.05249	0.062256	-0.041962	0.00351	0.003357	-0.078888	-0.094757	0.028381	0.003052	-0.021667	0.035553	0.13641	0.005798	0.001526	-0.02655	-0.002136	-0.045319	0.02533	-0.003815
19.192	0.055542	-0.017853	0.38177	0.012054	-0.041351	-0.082092	-0.002594	0.39002	-0.054932	-0.005188	-0.08667	0.063171	0.005188	-0.033569	0.016174	-0.01709	0.011292	0.004578	-0.080872	-0.012817	-0.003052	-0.004578	-0.027771	0.023956	0.18082	-0.007324	0.000916	-0.012054	-0.000305	-0.04364	-0.001984	-0.001831
19.193	0.06546	-0.030823	0.28503	0.002441	0.1384	-0.067444	0.002441	0.036316	-0.064697	0.019836	-0.11536	0.12497	-0.009613	-0.006561	-0.097809	-0.099335	0.018616	0.004425	-0.032959	0.11993	-0.019073	0.001221	-0.009613	-0.026703	0.2037	0.016327	0.001068	-0.002899	-0.00824	-0.040741	-0.00824	-0.010529
19.194	0.04715	-0.029144	0.054016	-0.012665	0.29419	-0.02655	0.010834	-0.33936	-0.058899	0.060577	-0.13443	0.15671	-0.00885	0.038757	-0.045776	-0.055847	0.020599	0.001678	-0.003357	-0.3891	0.006561	0.009308	-0.002899	-0.045166	0.20218	0.017548	-0.004272	0.006561	-0.011749	-0.037994	-0.014038	-0.008392
19.195	0.03891	-0.027924	-0.085144	0.018311	0.18997	0.003357	0.006256	-0.59952	0.010071	0.071411	-0.007782	0.10513	0.006256	0.032654	-0.079193	0.12405	0.023193	0.000305	0.042267	0.13062	0.041656	-0.006714	-0.006714	-0.02594	0.17792	0.006714	0.002441	0.006714	-0.009003	-0.033112	-0.014954	-0.011444
19.196	0.032806	-0.035858	-0.06897	-0.043335	0.11704	0.002136	0.00061	-0.50446	0.073853	0.067291	0.056	-0.076599	0.009155	-0.009918	-0.15655	0.018158	0.014648	-0.000305	-0.005798	0.11307	0.032959	-0.010071	-0.010529	-0.017242	0.14618	0.005798	0.000153	-0.001373	-0.009155	-0.033112	-0.019684	-0.006561
19.197	0.028076	-0.031891	0.051727	-0.088501	-0.020447	-0.069275	-0.004425	-0.38773	0.13001	0.055389	0.15549	-0.17777	0.010529	-0.062561	0.001984	-0.040588	0.017395	0.002441	-0.037537	0.071716	0.045929	-0.009766	-0.014038	0.004578	0.13428	-0.011139	0.003967	-0.001068	-0.007477	-0.034943	-0.011597	0.001678
19.198	0.020294	-0.024567	0.002594	-0.078278	-0.12558	-0.12924	-0.0177	-0.46036	0.14725	0.041504	0.078125	-0.066528	-0.015259	0.056	-0.05188	-0.07431	0.009308	0.002594	0.006104	0.00061	0.039215	-0.026245	-0.017242	0.029755	0.093231	-0.029144	0.00412	0.000763	-0.005951	-0.026855	-0.014801	-0.002594
19.199	0.007477	-0.012665	0.003357	0.037231	-0.12115	-0.11475	-0.027313	-0.49042	0.14908	0.036469	0.059967	0.02121	-0.022736	0.04715	-0.011902	0.1001	-0.002594	0.009613	0.007782	0.11231	0.041199	-0.042419	-0.013733	0.015869	0.033569	-0.0383	0.006714	0.007019	-0.000458	-0.029449	-0.024261	0.005188
19.2	-0.011292	0.006409	0.12451	0.037537	-0.29312	-0.097656	-0.028076	-0.11704	0.1532	0.029755	-0.00061	0.02243	-0.049896	0.009308	0.13702	0.044556	-0.031128	0.000763	-0.000916	0.012665	0.04776	-0.031891	-0.012817	-0.031433	-0.01709	-0.029907	0.002747	0.014801	-0.001678	-0.02655	0.006104	-0.007477
19.201	-0.006561	0.023041	0.25528	0.016022	-0.23025	-0.011139	-0.039368	0.22049	0.15213	0.033264	0.038757	-0.098267	-0.025024	-0.000458	0.087128	-0.10788	-0.022278	0.00473	0.046234	0.10635	0.058289	-0.031433	-0.013733	-0.031128	-0.041046	-0.030823	0.005188	0.031433	-0.00061	-0.023346	0.056	-0.015259
19.202	0.007629	0.030975	0.38818	-0.001984	-0.076447	0.076141	-0.026703	0.29022	0.084076	0.061493	0.055389	-0.070953	-0.000763	0.015564	-0.02594	0.008392	-0.014648	0.000916	-0.019531	-0.011902	0.046844	-0.019836	-0.006714	-0.037384	-0.052795	-0.045929	-0.001221	0.028687	0.001526	-0.021973	0.054474	-0.009003
19.203	0.010071	0.034332	0.34653	0.003815	-0.033875	-0.029602	-0.014648	0.075226	0.03006	0.049286	0.041962	-0.041962	-0.019836	0.044403	-0.067902	0.10223	-0.006104	0.001831	-0.064697	0.071716	0.039368	-0.005188	-0.005798	-0.035553	-0.043945	-0.030212	-0.00061	-0.018768	0.004425	-0.016022	0.029449	-0.001526
19.204	0.009766	0.041046	0.21286	-0.011597	-0.14679	-0.0383	0.003052	-0.019684	-0.031281	-0.00412	0.027008	-0.068817	-0.013733	-0.032196	-0.046539	-0.023193	-0.000916	0.002136	-0.008545	0.039978	0.008698	0.02121	0.011444	-0.042877	-0.047302	0.065308	0.006561	-0.049896	0.001831	-0.020905	0.003967	0.011902
19.205	-0.004883	0.019226	0.091095	-0.017853	-0.28595	0.000305	0.001068	-0.17425	-0.078278	-0.097351	-0.019684	-0.055695	0.021057	-0.14633	-0.014496	0.032806	-0.00412	0	0.025635	0.051422	0.041809	0.031128	0.009766	-0.059662	-0.083008	0.088959	-0.001678	-0.029907	0.010376	-0.017853	-0.001526	-0.004272
